<?xml version="1.0" encoding="utf-8"?>
<!-- Generator: Adobe Illustrator 20.1.0, SVG Export Plug-In . SVG Version: 6.00 Build 0)  -->
<svg version="1.1" id="Layer_1" xmlns="http://www.w3.org/2000/svg" xmlns:xlink="http://www.w3.org/1999/xlink" x="0px" y="0px"
	 viewBox="0 0 240 240" style="enable-background:new 0 0 240 240;" xml:space="preserve">
<path d="M240,30.6c-8.8,3.9-18.3,6.6-28.3,7.8c10.2-6.1,18-15.7,21.6-27.2c-9.5,5.6-20.1,9.7-31.3,11.9c-9-9.6-21.8-15.5-35.9-15.5
	c-27.2,0-49.2,22-49.2,49.2c0,3.9,0.4,7.6,1.3,11.2C77.3,65.9,41,46.3,16.7,16.5C12.5,23.8,10,32.2,10,41.2c0,17.1,8.7,32.2,21.9,41
	c-8.1-0.3-15.7-2.5-22.3-6.2c0,0.2,0,0.4,0,0.6c0,23.9,17,43.8,39.5,48.3c-4.1,1.1-8.5,1.7-13,1.7c-3.2,0-6.3-0.3-9.3-0.9
	c6.3,19.6,24.5,33.8,46,34.2C55.9,173.1,34.7,181,11.6,181c-4,0-7.9-0.2-11.7-0.7c21.8,14,47.7,22.1,75.5,22.1
	c90.6,0,140.1-75,140.1-140.1c0-2.1,0-4.3-0.1-6.4C225.1,49.1,233.4,40.4,240,30.6z"/>
</svg>
