<svg width="138" height="135" viewBox="0 0 138 135" xmlns="http://www.w3.org/2000/svg"><title>Page 1</title><g fill="none" fill-rule="evenodd"><path d="M55.347 2.394C24.047 8.408-1.46 36.174.12 77.46c.635 16.625 10.895 22.456 22.015 32.99 18.41 17.415 26.114 26.257 52.88 23.87 43.447-3.87 74.548-44.573 58.31-88.61-7.81-21.19-26.018-37.19-47.398-43.03-6.655-1.813-15.36-3.21-30.58-.286" fill="#F8F8F8"/><path d="M23.192 29.205c6.438 0 11.65-5.206 11.65-11.636 0-6.43-5.212-11.637-11.65-11.637-6.437 0-11.65 5.206-11.65 11.636 0 6.43 5.213 11.635 11.65 11.635" fill="#00FFCE"/><path d="M83.782 50.375c0 .408-.304.816-.92.816-3.467 0 0-12.84-13.883-12.84-7.96 0-11.13 4.485-11.13 9.474 0 14.69 30.623 12.756 30.623 33.754 0 13.155-9.486 18.96-21.84 18.96-1.737 0-6.437-.807-9.904-1.528-6.334-1.327-7.455-3.158-7.455-9.38 0-2.76.304-8.868 2.346-8.868 2.66 0 .418 2.96 3.476 8.565 1.016 1.83 4.49 7.748 13.066 7.748 9.695 0 13.58-5.917 13.58-11.01 0-15.498-30.625-14.483-30.625-34.058 0-8.565 6.325-17.13 19.295-17.13 1.425 0 3.466.105 5.508.513 7.862 1.527 7.862 2.646 7.862 6.525v8.46z" fill="#454545"/></g></svg>